<svg width="1080" height="720" viewBox="0 0 1080 720" fill="none" xmlns="http://www.w3.org/2000/svg">
<g clip-path="url(#clip0_2836_1233)">
<rect width="1080" height="720" fill="#CCC2EB"/>
<g clip-path="url(#clip1_2836_1233)">
<path d="M915.317 500.194C915.563 511.009 916.446 536.678 921.613 542.986C930.112 553.369 942.571 531.151 945.404 519.825C948.237 508.5 950.878 448.591 946.154 401.393C941.437 354.195 932.728 333.087 892.541 298.938C871.895 281.394 857.737 275.729 851.819 269.817C845.343 259.29 851.681 248.619 853.836 228.135C855.726 210.202 853.277 185.781 820.796 188.488C803.577 189.922 797.809 210.448 796.033 220.207C795.577 222.716 793.53 224.69 790.991 224.876C788.237 225.08 785.002 226.365 783.981 230.962C782.925 235.727 786.316 237.816 789.503 238.74C792.084 239.484 793.752 241.981 793.494 244.652C793.242 247.269 793.128 250.78 793.542 254.957C794.484 264.398 801.41 268.599 801.41 268.599C801.41 268.599 752.832 305.533 743.392 333.856C733.951 362.172 725.459 445.242 724.51 470.731C723.562 496.22 746.219 601.941 746.219 609.491C746.219 617.041 738.668 631.199 731.112 635.923C723.562 640.64 723.562 645.363 723.562 645.363H789.647L820.796 497.163L875.544 645.363H936.899C936.899 645.363 933.437 640.016 928.089 636.241C926.366 635.022 924.668 633.954 923.18 633.066C919.927 631.133 917.862 627.7 917.628 623.925L910.576 509.802C911.32 513.908 914.807 503.11 915.317 500.194Z" fill="url(#paint0_linear_2836_1233)"/>
<path d="M890.65 299.568C873.978 285.404 859.045 276.185 851.753 271.125L815.881 300.702L795.745 272.386C783.315 282.883 749.118 311.655 741.501 334.498C732.445 361.668 724.258 439.234 722.776 467.988H795.937L802.233 432.038L818.594 467.988H901.153L903.044 482.146L946.791 471.937C947.307 447.366 947.925 422.891 945.524 398.872C940.801 351.675 930.838 333.712 890.65 299.568Z" fill="white"/>
<path d="M851.129 270.07L816.709 300.511L820.922 321.043L851.819 269.818C851.819 269.818 893.609 292.72 920.041 326.702C938.046 349.851 945.224 376.631 947.415 422.04C949.305 461.171 946.472 480.563 945.524 504.161C944.582 527.76 939.739 544.361 928.533 544.751C917.328 545.147 917.208 530.593 917.208 524.927C917.208 519.262 914.375 497.554 914.375 497.554C914.375 497.554 913.433 512.66 907.767 513.602C902.102 514.544 901.159 507.937 903.05 494.721C904.94 481.505 902.054 463.164 901.159 450.356C897.828 402.636 871.895 348.411 856.795 339.912C848.566 335.285 840.746 336.137 844.521 348.411C848.296 360.684 858.037 365.437 866.229 370.119C879.445 377.669 898.327 371.061 898.327 371.061" stroke="#323232" stroke-width="4.04877" stroke-miterlimit="10" stroke-linecap="round" stroke-linejoin="round"/>
<path d="M803.805 252.994C801.915 257.087 797.509 257.399 795.133 257.123" stroke="#323232" stroke-width="1.79945" stroke-miterlimit="10" stroke-linecap="round" stroke-linejoin="round"/>
<path d="M810.843 224.99C810.96 223.025 809.918 221.364 808.515 221.28C807.112 221.197 805.88 222.722 805.762 224.687C805.645 226.653 806.688 228.314 808.09 228.398C809.493 228.481 810.726 226.956 810.843 224.99Z" fill="#323232"/>
<path d="M838.153 223.934C849.25 221.551 853.781 235.103 844.923 239.85" stroke="#323232" stroke-width="1.79945" stroke-miterlimit="10" stroke-linecap="round" stroke-linejoin="round"/>
<path d="M824.013 269.307C820.238 268.995 818.63 263.995 818.63 260.845C818.63 257.694 819.554 254.561 819.23 251.422C818.702 246.356 814.728 241.963 809.873 240.439C805.018 238.908 799.418 239.274 795.259 242.215" stroke="#323232" stroke-width="1.79945" stroke-miterlimit="10" stroke-linecap="round" stroke-linejoin="round"/>
<path d="M800.366 267.356C808.817 267.53 813.396 261.69 814.14 257.297C815.227 250.881 812.076 240.078 803.511 239.466" stroke="#323232" stroke-width="1.79945" stroke-miterlimit="10" stroke-linecap="round" stroke-linejoin="round"/>
<path d="M796.567 272.818L814.189 300.51L801.603 316.871L796.567 272.818Z" stroke="#323232" stroke-width="4.04877" stroke-miterlimit="10" stroke-linecap="round" stroke-linejoin="round"/>
<path d="M801.603 316.871L805.378 354.628L820.922 321.042" stroke="#323232" stroke-width="4.04877" stroke-miterlimit="10" stroke-linecap="round" stroke-linejoin="round"/>
<path d="M805.377 354.628V435.183" stroke="#323232" stroke-width="4.04877" stroke-miterlimit="10" stroke-linecap="round" stroke-linejoin="round"/>
<path d="M818.786 372.249C821.219 372.249 823.191 370.277 823.191 367.844C823.191 365.411 821.219 363.438 818.786 363.438C816.353 363.438 814.38 365.411 814.38 367.844C814.38 370.277 816.353 372.249 818.786 372.249Z" stroke="#323232" stroke-width="4.04877" stroke-miterlimit="10" stroke-linecap="round" stroke-linejoin="round"/>
<path d="M818.786 411.896C821.219 411.896 823.191 409.924 823.191 407.491C823.191 405.058 821.219 403.085 818.786 403.085C816.353 403.085 814.38 405.058 814.38 407.491C814.38 409.924 816.353 411.896 818.786 411.896Z" stroke="#323232" stroke-width="4.04877" stroke-miterlimit="10" stroke-linecap="round" stroke-linejoin="round"/>
<path d="M923.498 507.113C923.498 518.859 923.498 530.61 923.498 542.355" stroke="#323232" stroke-width="1.79945" stroke-miterlimit="10"/>
<path d="M929.788 508.374C929.788 520.119 929.788 531.871 929.788 543.616" stroke="#323232" stroke-width="1.79945" stroke-miterlimit="10"/>
<path d="M937.344 507.113C937.344 518.859 937.344 530.61 937.344 542.355" stroke="#323232" stroke-width="1.79945" stroke-miterlimit="10"/>
<path d="M294.907 155.778C294.907 153.786 296.521 152.177 298.508 152.177H776.078C778.064 152.177 779.679 153.792 779.679 155.778V469.165H294.907V155.778Z" fill="#EBEEF9"/>
<path d="M294.396 168.136H780.2V155.785C780.2 153.51 778.357 151.667 776.083 151.667C406.844 151.667 667.751 151.709 298.513 151.667C296.238 151.667 294.396 153.51 294.396 155.785V168.136Z" fill="#202641"/>
<path d="M294.906 155.778C294.906 153.786 296.521 152.177 298.507 152.177H776.077C778.064 152.177 779.678 153.792 779.678 155.778V469.165H294.906V155.778Z" stroke="#202641" stroke-width="1.34959"/>
<path d="M524.118 183.651H321.878V276.786H524.118V183.651Z" stroke="#323232" stroke-width="1.79945" stroke-miterlimit="10"/>
<path d="M748.547 183.651H546.307V276.786H748.547V183.651Z" stroke="#323232" stroke-width="1.79945" stroke-miterlimit="10"/>
<path d="M749.807 294.407H320.618V387.542H749.807V294.407Z" stroke="#323232" stroke-width="1.79945" stroke-miterlimit="10"/>
<path d="M736.423 428.533H647.586C640.786 428.533 635.276 423.024 635.276 416.224C635.276 409.424 640.786 403.914 647.586 403.914H736.423C743.223 403.914 748.733 409.424 748.733 416.224C748.739 423.018 743.223 428.533 736.423 428.533Z" fill="white"/>
<path d="M247.727 232.655C247.727 232.655 254.743 229.468 254.107 223.089C253.471 216.709 248.37 212.886 245.177 212.243C241.99 211.607 233.377 213.198 233.377 213.198L247.727 232.655Z" fill="#FF3C00"/>
<path d="M245.176 267.051C254.311 264.812 259.634 259.753 262.317 250.54C264.357 243.536 261.177 234.228 261.177 234.228L254.263 237.06C254.263 237.06 252.738 234.18 247.841 226.395C243.087 218.845 235.021 220.01 235.021 220.01L208.391 232.097L216.83 273.593C216.83 273.593 229.746 270.832 245.176 267.051Z" fill="url(#paint1_linear_2836_1233)"/>
<path d="M270.414 387.872C271.788 381.768 275.641 364.831 277.766 357.389C280.382 348.225 289.547 340.374 286.93 325.976C284.314 311.578 273.841 299.797 273.841 299.797L280.857 289.498L220.167 278.851L226.715 297.174C226.715 297.174 166.5 335.135 137.703 360.006C108.907 384.877 106.29 396.659 114.141 414.982C121.019 431.036 167.808 414.982 186.137 414.982C167.814 445.087 161.266 471.266 156.033 494.829C150.799 518.392 141.634 547.188 123.305 572.059C104.976 596.93 104.982 593.005 99.7424 607.403C94.5089 621.801 94.5089 630.966 94.5089 630.966L85.3442 645.364H145.001C145.001 645.364 180.346 574.676 192.127 540.646C203.908 506.61 224.854 456.868 224.854 456.868L221.481 645.364H264.676C264.676 645.364 254.203 633.583 258.128 627.041C262.053 620.493 271.218 611.334 273.835 602.17C276.451 593.005 268.601 561.592 267.287 551.119C265.978 540.646 269.903 521.014 275.143 509.233C280.376 497.452 284.5 454.401 280.376 430.694C276.847 410.385 272.724 395.452 270.414 387.872ZM178.281 383.569L224.098 346.916L230.694 367.538C222.622 370.713 213.835 375.394 213.835 375.394L214.934 387.17C212.647 388.31 210.414 389.553 208.386 390.891V370.479L178.281 383.569Z" fill="url(#paint2_linear_2836_1233)"/>
<path d="M270.413 387.872C271.788 381.768 275.641 364.831 277.766 357.389C280.382 348.224 289.547 340.374 286.93 325.976C284.314 311.578 273.84 299.796 273.84 299.796L280.857 289.497L215.114 276.996L226.721 297.173C226.721 297.173 167.556 337.709 138.76 362.58C109.963 387.451 104.922 397.306 114.146 414.981C122.117 430.262 135.825 430.028 149.785 426.097L180.904 414.981L213.643 413.973L212.317 366.547L184.907 376.84L222.664 345.793L230.826 368.78C230.826 368.78 240.147 362.616 249.708 365.005C264.814 368.78 266.698 388.604 266.698 388.604L270.528 388.22C270.486 388.112 270.443 387.986 270.413 387.872Z" fill="white"/>
<path d="M237.872 212.447C237.872 212.447 234.163 219.433 234.727 235.878C235.31 252.863 243.658 276.702 243.658 276.702L199.011 294.563C199.011 294.563 200.464 284.972 196.724 275.795C192.985 266.619 182.644 234.287 202.84 222.83C223.036 211.373 237.872 212.447 237.872 212.447Z" fill="#FF3C00"/>
<path d="M228.018 365.246C225.221 360.492 223.636 347.463 221.176 342.523C219.387 338.928 217.641 335.039 218.115 331.048C218.589 327.057 222.202 323.174 226.151 323.918C229.902 326.108 230.808 331.414 229.314 335.489C227.82 339.57 224.537 342.691 221.32 345.614C205.343 360.156 188.454 373.708 170.791 386.156C184.085 379.548 210.679 366.338 210.679 366.338L213.613 416.296C213.613 416.296 200.524 409.749 187.104 415.018C175.658 419.507 163.715 422.1 152.042 425.959C140.368 429.818 126.012 430.611 117.262 421.974C109.273 414.094 109.033 400.776 113.733 390.591C118.432 380.4 127.056 372.646 135.561 365.33C163.991 340.855 193.634 317.79 224.344 296.25L219.477 287.613" stroke="#323232" stroke-width="3.59891" stroke-miterlimit="10" stroke-linecap="round" stroke-linejoin="round"/>
<path d="M241.659 237.186L249.51 235.884" stroke="#323232" stroke-width="1.79945" stroke-miterlimit="10" stroke-linecap="round" stroke-linejoin="round"/>
<path d="M251.592 247.018C255.998 252.683 261.663 249.532 261.663 249.532" stroke="#323232" stroke-width="1.79945" stroke-miterlimit="10" stroke-linecap="round" stroke-linejoin="round"/>
<path d="M244.474 282.032L280.85 288.556L273.834 299.797L281.799 312.154" stroke="#323232" stroke-width="3.59891" stroke-miterlimit="10" stroke-linecap="round" stroke-linejoin="round"/>
<path d="M278.648 367.214L266.693 388.61" stroke="#323232" stroke-width="3.59891" stroke-miterlimit="10" stroke-linecap="round" stroke-linejoin="round"/>
<path d="M243.628 381.522C248.622 387.062 252.799 393.345 255.968 400.103" stroke="#323232" stroke-width="1.79945" stroke-miterlimit="10"/>
<path d="M249.293 378.689C254.287 384.229 258.464 390.513 261.633 397.271" stroke="#323232" stroke-width="1.79945" stroke-miterlimit="10"/>
<path d="M254.011 375.857C259.004 381.397 263.182 387.68 266.351 394.438" stroke="#323232" stroke-width="1.79945" stroke-miterlimit="10"/>
<path d="M242.59 268.606C242.59 268.606 253.657 266.025 260.211 258.535C264.616 253.5 265.246 248.464 264.616 242.174C263.986 235.879 262.726 234.624 262.726 234.624L254.269 237.061C254.269 237.061 250.77 225.814 246.365 222.669C241.96 219.524 237.554 219.524 237.554 219.524" stroke="#323232" stroke-width="3.59891" stroke-miterlimit="10" stroke-linecap="round" stroke-linejoin="round"/>
<path d="M390.13 144.345C403.154 151.037 420.265 148.667 430.978 138.686C441.691 128.705 445.262 111.804 439.5 98.3421C431.956 80.703 410.686 71.8084 391.637 74.0951C373.301 76.2917 356.971 86.8308 338.911 90.6779C328.018 92.9945 314.34 91.5061 309.245 81.6093" stroke="#9C89D4" stroke-width="6.29809" stroke-miterlimit="10" stroke-linecap="round" stroke-linejoin="round"/>
<path d="M397.591 133.74C396.33 119.894 381.23 106.678 363.609 107.939C347.242 109.109 330.257 119.894 320.186 119.894C312.738 119.894 307.018 117.829 304.54 116.755C302.403 111.054 298.562 104.578 291.87 102.903C284.542 101.073 279.284 105.418 279.284 105.418C279.284 105.418 269.214 106.678 265.438 115.489C261.663 124.299 266.699 134.994 266.699 134.994C266.699 134.994 259.779 141.29 267.329 143.175C274.921 145.071 284.44 141.158 292.254 136.615L296.912 151.355H393.827C393.815 151.361 398.845 147.586 397.591 133.74Z" fill="#9C89D4"/>
<path d="M295.273 131.507C289.577 137.503 284.554 144.141 280.328 151.259C276.433 157.819 273.138 165.525 275.083 172.901C275.365 173.97 275.785 175.056 276.625 175.77C278.966 177.757 282.729 175.458 283.785 172.577C284.836 169.69 284.368 166.467 285.094 163.485C286.174 159.043 289.751 155.664 293.466 153.012C297.181 150.359 301.274 148.096 304.275 144.651C307.276 141.206 308.975 136.093 306.928 132.012C304.881 127.924 298.154 126.67 295.759 130.559" fill="#9C89D4"/>
<path d="M259.142 167.098C255.139 170.435 249.671 173.382 246.671 177.643C245.566 179.209 244.564 181.232 245.374 182.966C246.761 185.937 251.358 184.923 254.035 183.027C272.988 169.619 289.073 156.301 303.195 140.036C305.812 137.023 308.302 133.656 305.373 130.943C297.391 123.561 274.243 154.512 259.142 167.098Z" fill="#9C89D4"/>
<path d="M291.864 102.909C291.864 102.909 257.882 97.2438 255.991 104.17C255.145 107.267 273.612 110.466 273.612 110.466L291.864 102.909Z" fill="#9C89D4"/>
<path d="M297.967 126.586C291.978 131.981 288.575 137.257 283.875 143.811C279.182 150.365 276.997 161.948 277.201 170.008C277.279 173.081 277.928 175.116 280.976 174.726C283.131 174.456 284.175 170.267 284.98 168.25C287.224 162.62 289.475 156.991 291.719 151.355C292.854 148.504 294.096 145.515 296.539 143.661C300.398 140.726 305.812 141.578 310.601 142.328C321.734 144.063 334.062 144.195 343.178 137.569C345.375 135.973 347.452 133.692 347.38 130.985C347.307 128.272 343.797 125.914 341.768 127.72C340.448 128.897 340.532 130.943 340.724 132.702C341.222 137.305 340.886 145.581 341.384 150.185" stroke="#323232" stroke-width="3.59891" stroke-miterlimit="10" stroke-linecap="round" stroke-linejoin="round"/>
<path d="M289.493 127.528C287.135 137.497 275.923 144.417 265.954 142.07C265.528 138.421 265.102 134.772 264.67 131.123C264.064 125.956 263.482 120.572 265.228 115.675C266.975 110.777 271.794 106.546 276.944 107.308C270.162 106.564 263.386 105.82 256.604 105.076C263.596 102.969 270.702 100.85 278 100.772C285.298 100.694 292.95 102.933 297.86 108.341C301.467 112.314 303.897 118.105 309.095 119.444C312.612 120.35 321.56 119.984 329.117 118.093C339.566 115.483 346.408 110.369 355.548 108.653C370.655 105.82 378.037 109.733 381.98 112.428" stroke="#323232" stroke-width="3.59891" stroke-miterlimit="10" stroke-linecap="round" stroke-linejoin="round"/>
<path d="M288.707 103.167C285.502 106.084 282.297 109.007 279.092 111.924C284.542 109.763 290.237 108.233 296.029 107.369" stroke="#323232" stroke-width="3.59891" stroke-miterlimit="10" stroke-linecap="round" stroke-linejoin="round"/>
<path d="M265.87 134.142C269.261 134.346 272.262 137.347 272.46 140.744" stroke="#323232" stroke-width="3.59891" stroke-miterlimit="10" stroke-linecap="round" stroke-linejoin="round"/>
<path d="M273.895 127.528C275.197 127.528 276.253 126.472 276.253 125.17C276.253 123.867 275.197 122.811 273.895 122.811C272.592 122.811 271.536 123.867 271.536 125.17C271.536 126.472 272.592 127.528 273.895 127.528Z" fill="#323232"/>
<path d="M441.937 139.988C451.36 129.413 454.169 113.4 448.923 100.244" stroke="#323232" stroke-width="1.79945" stroke-miterlimit="10"/>
<path d="M673.315 190.726C666.317 205.755 658.149 220.225 648.918 233.993C646.626 237.408 644.273 240.775 641.86 244.1C640.612 245.816 639.346 247.521 638.067 249.213C637.785 249.585 637.509 249.952 637.227 250.324C637.065 250.534 636.903 250.744 636.741 250.954C636.687 251.02 636.189 251.674 636.453 251.332C636.687 251.026 636.285 251.548 636.285 251.554C636.123 251.764 635.961 251.974 635.799 252.184C635.432 252.652 635.06 253.126 634.694 253.595C629.563 260.1 624.179 266.414 618.574 272.518C607.356 284.72 595.221 296.087 582.299 306.47C581.525 307.094 580.745 307.712 579.964 308.33C579.262 308.883 578.104 309.789 577.708 310.095C578.05 309.831 577.396 310.335 577.33 310.383C577.174 310.503 577.012 310.623 576.855 310.743C576.435 311.067 576.009 311.385 575.589 311.709C574.743 312.352 573.897 312.988 573.044 313.618C569.689 316.109 566.286 318.533 562.841 320.892C556.005 325.573 548.983 329.985 541.805 334.126C534.627 338.267 527.287 342.126 519.803 345.685C518.963 346.087 518.123 346.489 517.264 346.855C517.978 346.549 516.952 346.97 516.73 347.054C516.22 347.246 515.698 347.432 515.182 347.6C514.311 347.882 513.435 348.128 512.541 348.32C512.133 348.41 511.719 348.47 511.305 348.554C512.085 348.398 511.515 348.53 511.329 348.548C511.04 348.572 510.752 348.602 510.464 348.614C510.008 348.638 509.558 348.644 509.102 348.62C508.754 348.608 507.878 348.446 508.7 348.614C508.28 348.53 507.86 348.446 507.451 348.32C507.247 348.26 507.055 348.182 506.851 348.11C507.163 348.218 507.349 348.368 506.959 348.128C506.719 347.978 505.813 347.318 506.461 347.876C506.125 347.588 505.813 347.282 505.525 346.946C505.987 347.48 505.357 346.609 505.231 346.399C504.907 345.865 505.405 346.946 505.189 346.357C505.081 346.069 504.991 345.775 504.919 345.475C504.859 345.235 504.811 344.995 504.769 344.749C504.787 344.845 504.793 345.361 504.805 344.899C504.817 344.395 504.763 343.891 504.793 343.38C504.805 343.188 504.823 342.996 504.835 342.804C504.781 343.513 504.817 342.882 504.847 342.732C504.961 342.156 505.087 341.592 505.249 341.028C505.375 340.59 505.525 340.164 505.675 339.737C505.945 338.987 505.777 339.473 505.705 339.641C505.801 339.419 505.909 339.191 506.017 338.975C506.437 338.099 506.905 337.247 507.415 336.424C507.668 336.016 507.932 335.614 508.208 335.218C508.31 335.068 508.412 334.924 508.52 334.78C508.586 334.69 509.036 334.09 508.742 334.474C508.448 334.858 508.916 334.264 508.982 334.18C509.096 334.042 509.21 333.904 509.324 333.766C509.672 333.358 510.032 332.955 510.404 332.565C511.022 331.911 511.671 331.287 512.337 330.681C512.697 330.357 513.063 330.045 513.429 329.733C513.627 329.57 514.606 328.808 514.035 329.234C517.168 326.888 520.589 324.967 524.142 323.329C524.544 323.143 524.947 322.963 525.349 322.783C525.577 322.681 525.811 322.578 526.045 322.482C525.409 322.759 526.009 322.494 526.123 322.452C527.059 322.068 527.995 321.696 528.938 321.342C530.804 320.634 532.695 319.98 534.591 319.356C539.315 317.807 544.086 316.385 548.917 315.196C553.587 314.044 558.634 313.048 563.051 312.562C568.063 312.009 573.128 311.865 578.158 312.268C578.716 312.316 579.28 312.364 579.838 312.424C579.994 312.442 581.705 312.652 580.853 312.532C581.861 312.67 582.863 312.838 583.86 313.036C585.864 313.426 587.851 313.918 589.801 314.518C590.659 314.782 591.506 315.064 592.346 315.364C592.826 315.538 593.306 315.713 593.78 315.899C594.02 315.989 594.254 316.085 594.495 316.181C595.179 316.451 594.357 316.115 594.765 316.289C596.571 317.075 598.342 317.951 600.052 318.935C601.751 319.908 603.389 320.982 604.962 322.152C605.04 322.212 605.658 322.693 605.298 322.41C604.974 322.152 605.454 322.542 605.478 322.56C605.868 322.879 606.252 323.197 606.63 323.521C607.386 324.175 608.125 324.853 608.833 325.555C609.499 326.216 610.141 326.894 610.759 327.596C611.089 327.968 611.413 328.352 611.726 328.736C611.846 328.88 611.96 329.024 612.08 329.174C611.582 328.556 612.326 329.504 612.356 329.546C613.502 331.113 614.528 332.769 615.417 334.492C615.627 334.9 615.831 335.308 616.023 335.722C616.143 335.98 616.257 336.238 616.377 336.497C616.407 336.563 616.671 337.211 616.461 336.695C616.875 337.727 617.247 338.777 617.577 339.845C617.877 340.836 618.141 341.838 618.369 342.846C618.472 343.314 618.568 343.789 618.658 344.263C618.706 344.533 618.754 344.803 618.802 345.073C618.796 345.043 618.964 346.153 618.91 345.757C618.85 345.301 618.952 346.147 618.964 346.243C618.994 346.519 619.024 346.789 619.048 347.066C619.09 347.546 619.126 348.026 619.156 348.506C619.222 349.61 619.246 350.715 619.234 351.825C619.222 352.941 619.174 354.052 619.09 355.162C619.054 355.648 619.012 356.14 618.958 356.626C618.928 356.908 618.898 357.184 618.868 357.467C618.856 357.575 618.736 358.481 618.826 357.857C618.207 362.256 617.091 366.583 615.663 370.784C614.144 375.262 612.674 378.641 610.543 382.884C608.533 386.893 606.282 390.776 603.929 394.593C594.399 410.054 583.157 423.69 569.689 436.149C566.43 439.162 563.063 442.067 559.612 444.864C557.956 446.202 558.118 449.221 559.612 450.595C561.371 452.21 563.58 452.024 565.344 450.595C580.222 438.538 593.318 424.386 604.325 408.715C615.219 393.201 625.199 375.622 627.084 356.422C628.002 347.09 626.412 337.463 621.79 329.24C617.613 321.804 611.059 315.809 603.647 311.667C586.098 301.861 565.488 302.743 546.529 307.448C537.412 309.711 528.241 312.52 519.713 316.499C512.211 319.998 505.129 324.949 500.615 332.025C498.197 335.812 496.318 340.512 496.726 345.085C497.176 350.174 500.147 354.328 505.021 356.026C508.994 357.413 513.645 356.626 517.534 355.342C521.664 353.974 525.583 351.897 529.466 349.958C544.878 342.246 559.654 333.268 573.633 323.179C587.785 312.97 601.162 301.68 613.562 289.401C625.92 277.163 637.281 263.942 647.598 249.946C657.825 236.076 666.959 221.395 674.84 206.067C676.748 202.352 678.585 198.601 680.349 194.814C681.244 192.899 680.956 190.36 678.897 189.268C677.066 188.326 674.27 188.68 673.315 190.726Z" fill="#FF3B00"/>
<path d="M756.05 210.496L656.901 179.75L679.846 280.987L705.647 257.124L758.126 313.858L782.727 291.094L730.248 234.365L756.05 210.496Z" fill="white"/>
<path d="M707.015 196.236L656.901 179.75L679.846 280.987L705.647 257.124L758.126 313.858L782.727 291.094L730.248 234.365L743.26 222.332L756.05 210.496" stroke="#323232" stroke-width="1.79945" stroke-miterlimit="10"/>
<path d="M388.942 336.197C391.181 335.051 392.057 332.308 390.911 330.069C390.785 329.823 390.635 329.595 390.473 329.379C390.665 328.407 390.551 327.363 390.059 326.414C388.912 324.176 386.169 323.3 383.931 324.446C382.49 325.184 381.614 326.588 381.482 328.089C380.948 328.149 380.414 328.299 379.904 328.557C377.665 329.703 376.789 332.446 377.935 334.685C379.081 336.923 381.824 337.8 384.063 336.653C384.321 336.521 384.561 336.365 384.783 336.191C386.043 336.839 387.586 336.893 388.942 336.197Z" fill="white"/>
<path d="M363.921 314.669C363.921 312.496 362.162 310.737 359.99 310.737C359.75 310.737 359.515 310.761 359.287 310.803C358.615 310.269 357.769 309.951 356.845 309.951C354.672 309.951 352.914 311.71 352.914 313.882C352.914 315.281 353.646 316.505 354.75 317.201C354.582 317.633 354.492 318.108 354.492 318.6C354.492 320.772 356.251 322.531 358.423 322.531C360.596 322.531 362.354 320.772 362.354 318.6C362.354 318.348 362.33 318.102 362.282 317.861C363.273 317.147 363.921 315.989 363.921 314.669Z" fill="white"/>
<path d="M533.518 640.334H650.881C650.881 640.334 648.049 582.124 642.383 565.133C636.717 548.142 623.502 522.653 601.793 512.27" fill="#FCFAE6"/>
<path d="M533.518 640.334H650.881C650.881 640.334 648.049 582.124 642.383 565.133C636.717 548.142 623.502 522.653 601.793 512.27" stroke="#323232" stroke-width="1.79945" stroke-miterlimit="10"/>
<path d="M338.431 388.61H281.793H265.72C265.726 388.766 265.744 388.922 265.744 389.084C265.744 394.558 261.309 398.993 255.835 398.993C251.856 398.993 248.435 396.646 246.857 393.261C236.774 399.905 231.372 412.731 235.309 425.431L301.929 640.328H533.511C533.511 640.328 530.613 599.961 516.052 563.17" fill="#FCFAE6"/>
<path d="M338.431 388.61H281.793H265.72C265.726 388.766 265.744 388.922 265.744 389.084C265.744 394.558 261.309 398.993 255.835 398.993C251.856 398.993 248.435 396.646 246.857 393.261C236.774 399.905 231.372 412.731 235.309 425.431L301.929 640.328H533.511C533.511 640.328 530.613 599.961 516.052 563.17" stroke="#323232" stroke-width="1.79945" stroke-miterlimit="10"/>
<path d="M214.898 400.133C224.044 393.411 237.638 384.637 237.638 384.637C237.638 384.637 243.49 391.533 246.803 394.954C250.182 398.441 254.833 401.609 259.821 399.209C262.479 397.93 264.25 395.374 264.934 392.505C266.375 386.509 263.77 380.909 261.231 375.622C255.998 364.699 242.608 360.462 232.063 366.415C225.473 370.136 219.087 373.935 214.928 375.724" stroke="#323232" stroke-width="3.59891" stroke-miterlimit="10" stroke-linecap="round" stroke-linejoin="round"/>
<path d="M695.883 491.822C690.007 495.177 687.493 499.372 681.197 502.727C674.901 506.082 666.09 506.922 650.99 504.407C638.092 502.259 513.46 477.892 475.625 470.425C481.603 467.911 484.442 467.323 492.304 464.448C503.828 460.234 503.317 455.007 502.477 449.449C501.619 443.772 494.819 437.284 484.436 437.284C474.053 437.284 461.149 433.929 461.149 433.929L458.022 422.166L446.697 434.751L429.058 442.427L413.327 420.719C413.327 420.719 471.328 389.15 483.602 380.652C495.875 372.153 495.347 360.936 489.477 351.807C482.107 340.362 421.058 318.522 414.378 311.848C410.603 308.073 405.465 303.145 402.632 298.422C396.967 288.981 381.866 289.509 382.809 298.944C384.129 312.13 394.65 323.581 401.372 330.303C402.632 331.563 406.407 332.404 398.857 336.179C391.307 339.954 388.264 343.729 392.982 347.504C397.699 351.279 402.842 346.142 412.283 347.084C421.724 348.026 437.454 359.669 437.454 359.669C437.454 359.669 379.214 393.825 372.426 394.912C366.166 395.914 360.722 395.098 356.737 393.969C352.662 392.817 349.169 390.194 346.894 386.623L340.334 376.342C340.334 376.342 349.775 378.233 353.55 373.509C357.325 368.792 353.55 359.663 353.55 359.663C353.55 359.663 346.42 360.924 343.899 358.823C340.821 356.26 340.965 354.208 340.965 354.208L353.55 353.686L351.035 347.078C351.035 347.078 357.643 347.6 358.586 342.883C359.528 338.165 340.124 318.972 332.574 315.191C325.024 311.416 296.072 312.256 292.297 334.906C289.992 348.746 310.128 379.169 310.128 379.169C312.018 382.002 319.568 395.218 320.511 398.993C321.453 402.768 311.808 415.774 309.918 431.822C308.027 447.871 310.722 469.399 319.568 481.121C327.959 492.236 339.284 503.567 385.858 501.466C389.429 501.304 393.168 500.656 397.003 499.648C406.798 500.158 428.152 501.256 442.916 501.887C462.632 502.727 478.158 511.117 486.549 517.827C494.939 524.537 505.112 540.076 508.365 548.874C514.031 564.184 506.246 576.452 514.241 597.122C521.581 616.105 534.797 622.293 541.512 629.429C548.222 636.559 546.128 641.175 546.128 641.175L606.541 642.015C606.541 642.015 605.281 638.66 596.47 634.885C587.66 631.11 590.595 632.784 585.145 626.494C579.689 620.199 577.595 595.868 572.139 576.152C567.428 559.119 559.584 543.34 548.883 527.196C552.328 527.454 556.931 528.156 560.394 530.005C566.69 533.36 578.855 543.01 606.961 544.691C635.073 546.371 641.363 540.916 652.689 538.395C664.014 535.88 663.18 541.33 670.73 544.271C678.28 547.206 684.996 549.726 684.996 549.726L705.552 488.893C705.528 488.881 701.753 488.461 695.883 491.822Z" fill="url(#paint3_linear_2836_1233)"/>
<path d="M510.237 551.917C507.405 542.476 504.176 537.357 495.599 527.136C486.849 516.705 476.135 508.842 463.034 505.667" fill="#FCFAE6"/>
<path d="M510.237 551.917C507.405 542.476 504.176 537.357 495.599 527.136C486.849 516.705 476.135 508.842 463.034 505.667" stroke="#323232" stroke-width="1.79945" stroke-miterlimit="10"/>
<path d="M324.273 486.787C306.34 478.288 299.414 459.095 293.124 436.444C286.829 413.787 281.799 388.616 281.799 388.616" stroke="#323232" stroke-width="1.79945" stroke-miterlimit="10"/>
<path d="M463.04 505.662C438.925 499.816 414.822 501.232 387.52 499.996" stroke="#323232" stroke-width="1.79945" stroke-miterlimit="10"/>
<path d="M415.116 423.504C407.409 424.134 397.62 423.234 389.512 417.034C381.308 410.756 375.57 401.52 371.921 393.993C371.795 394.024 371.681 394.048 371.579 394.066C365.319 395.068 359.876 394.252 355.89 393.123C352.595 392.193 349.685 390.296 347.482 387.722L367.798 415.15L319.628 398.057C319.634 398.087 319.646 398.129 319.658 398.159C320.054 399.737 318.596 402.924 316.633 407.269C318.386 408.068 320.606 409.094 323.433 410.432C341.366 418.931 347.974 429.314 354.582 440.639C361.19 451.964 364.023 461.405 364.023 461.405L428.211 441.581L415.116 423.504Z" fill="white"/>
<path d="M321.441 399.942L367.696 414.1L340.322 376.343C340.322 376.343 349.763 376.343 353.538 373.51C357.313 370.677 354.168 361.554 354.168 361.554C354.168 361.554 350.075 364.387 344.728 360.294C340.352 356.951 340.322 354.628 340.322 354.628L353.538 353.686L351.023 347.078C351.023 347.078 357.943 347.18 358.574 342.883C359.204 338.586 343.155 322.537 330.882 316.872" stroke="#323232" stroke-width="4.04877" stroke-miterlimit="10" stroke-linecap="round" stroke-linejoin="round"/>
<path d="M427.167 443.363C427.167 443.363 418.044 426.373 417.48 425.334C398.616 425.286 383.216 412.791 374.303 396.166C401.185 381.588 425.768 368.264 452.65 353.686C460.944 350.049 464.293 363.438 457.367 365.959C453.472 367.376 444.98 360.348 441.319 358.409C434.111 354.586 430.51 353.884 423.386 349.911C416.262 345.937 414.887 344.245 405.452 345.193C403.046 345.433 395.898 346.73 393.485 346.718C393.461 346.718 393.437 346.718 393.413 346.718C390.304 346.646 389.428 342.42 392.165 340.932C397.512 338.021 404.516 331.977 404.516 331.977C404.516 331.977 398.869 328.424 392.243 320.652C370.534 295.163 391.3 287.3 398.22 294.851C412.462 310.389 429.711 323.923 450.79 332.055C460.308 335.728 475.529 341.124 483.805 347.084C492.087 353.043 496.079 362.19 494.188 369.74C491.313 381.228 476.831 388.814 466.13 393.885C457.211 398.11 448.293 402.336 439.374 406.561" stroke="#323232" stroke-width="4.04877" stroke-miterlimit="10" stroke-linecap="round" stroke-linejoin="round"/>
<path d="M344.097 310.582C344.097 306.411 340.718 303.032 336.547 303.032C335.563 303.032 334.621 303.224 333.756 303.572C332.886 300.361 329.963 297.996 326.476 297.996C323.595 297.996 321.093 299.611 319.82 301.981C318.842 298.938 315.997 296.736 312.63 296.736C308.771 296.736 305.596 299.629 305.14 303.368C303.796 301.273 301.455 299.887 298.784 299.887C294.613 299.887 291.234 303.266 291.234 307.437C291.234 308.049 291.318 308.643 291.456 309.219C290.298 308.493 288.929 308.067 287.459 308.067C283.288 308.067 279.909 311.446 279.909 315.617C279.909 316.998 280.287 318.288 280.935 319.404C276.872 319.53 273.619 322.849 273.619 326.943C273.619 329.373 274.771 331.528 276.554 332.908C273.409 333.821 271.104 336.719 271.104 340.158C271.104 343.843 273.745 346.904 277.232 347.57C275.071 348.897 273.625 351.28 273.625 354.004C273.625 358.176 277.004 361.555 281.175 361.555C281.193 361.555 281.211 361.555 281.229 361.555C279.657 362.941 278.66 364.963 278.66 367.22C278.66 371.391 282.039 374.77 286.211 374.77C287.957 374.77 289.56 374.17 290.844 373.174C290.298 374.218 289.986 375.401 289.986 376.655C289.986 380.826 293.365 384.205 297.536 384.205C299.624 384.205 301.515 383.353 302.883 381.984C304.252 383.359 306.142 384.205 308.231 384.205C312.402 384.205 315.781 380.826 315.781 376.655C315.781 376.571 315.769 376.493 315.769 376.409C319.028 375.575 321.447 372.622 321.447 369.099C321.447 366.848 320.451 364.837 318.89 363.451C317.318 364.621 315.379 365.324 313.266 365.324C308.051 365.324 303.826 361.098 303.826 355.883C303.826 350.667 308.051 346.442 313.266 346.442C314.029 346.442 314.761 346.544 315.469 346.712C315.673 346.028 315.787 345.308 315.787 344.558C315.787 343.213 315.433 341.959 314.821 340.867C317.6 339.75 319.562 337.037 319.562 333.863C319.562 332.692 319.286 331.582 318.812 330.592C319.802 331.072 320.907 331.342 322.083 331.342C325.606 331.342 328.553 328.929 329.387 325.67C330.689 327.933 333.126 329.457 335.923 329.457C340.094 329.457 343.473 326.078 343.473 321.907C343.473 319.794 342.603 317.886 341.204 316.518C342.963 315.137 344.097 312.989 344.097 310.582Z" fill="#FF3C00"/>
<path d="M500.285 391.845C498.544 391.929 496.978 392.601 495.753 393.651C495.387 393.021 494.937 392.451 494.421 391.959C494.523 391.401 494.571 390.825 494.541 390.236C494.337 386.071 490.802 382.854 486.631 383.058C484.662 383.154 482.91 384.001 481.625 385.303C480.407 384.535 478.96 384.109 477.418 384.145C477.658 383.34 477.778 382.488 477.736 381.6C477.532 377.435 473.991 374.218 469.826 374.422C465.661 374.626 462.444 378.161 462.648 382.332C462.69 383.22 462.894 384.061 463.212 384.835C459.137 385.135 456.022 388.622 456.22 392.727C456.382 396.04 458.657 398.741 461.675 399.611C461.645 399.953 461.627 400.301 461.645 400.655C461.849 404.821 465.391 408.037 469.556 407.833C473.721 407.629 476.938 404.088 476.734 399.923C476.722 399.671 476.698 399.425 476.662 399.179C477.088 399.233 477.52 399.257 477.964 399.233C479.345 399.167 480.617 398.729 481.697 398.027C482.015 402.078 485.496 405.169 489.583 404.971C491.324 404.887 492.89 404.214 494.115 403.164C495.483 405.535 498.094 407.077 501.017 406.933C505.182 406.729 508.399 403.194 508.195 399.023C507.991 394.858 504.456 391.647 500.285 391.845Z" fill="white"/>
<path d="M454.391 396.395L463.891 435.58C463.891 435.58 478.271 434.151 482.353 435.58C490.743 438.515 496.367 443.502 496.367 443.502L510.249 398.411L454.391 396.395Z" fill="#FCFAE6"/>
<path d="M471.874 397L474.802 435.586" stroke="#323232" stroke-width="1.79945" stroke-miterlimit="10"/>
<path d="M491.793 398.561L487.124 438.79" stroke="#323232" stroke-width="1.79945" stroke-miterlimit="10"/>
<path d="M509.42 398.339L454.391 396.395L463.891 435.586" stroke="#323232" stroke-width="1.79945" stroke-miterlimit="10"/>
<path d="M336.097 341.172C337.49 340.987 338.41 339.256 338.152 337.304C337.894 335.352 336.555 333.919 335.161 334.103C333.768 334.288 332.848 336.019 333.106 337.971C333.364 339.923 334.703 341.356 336.097 341.172Z" fill="#323232"/>
<path d="M342.441 426.067C353.598 437.002 361.568 451.154 365.127 466.369C366.544 472.412 364.737 481.457 358.573 480.725C354.234 480.209 352.446 474.237 354.45 470.354C356.461 466.471 360.71 464.364 364.749 462.702C383.775 454.857 404.175 451.064 423.998 445.555C438.457 441.533 454.961 434.007 457.314 419.189C458.448 424.687 459.577 430.19 460.711 435.688C470.398 434.109 482.413 434.577 491.35 438.641C501.733 443.358 504.8 452.457 499.308 460.589C493.336 469.435 480.199 467.419 469.527 467.623C443.246 468.127 421.688 487.699 397.183 497.229C377.839 504.75 355.663 504.978 336.703 496.527C314.827 486.774 306.941 459.269 309.161 438.635" stroke="#323232" stroke-width="4.04877" stroke-miterlimit="10" stroke-linecap="round" stroke-linejoin="round"/>
<path d="M315.901 345.482C311.898 344.731 307.529 346.688 305.416 350.169C303.304 353.65 303.586 358.427 306.1 361.632" stroke="#323232" stroke-width="1.79945" stroke-miterlimit="10"/>
<path d="M465.915 442.668C476.508 440.693 488.367 443.004 498.906 445.249" stroke="#323232" stroke-width="1.79945" stroke-miterlimit="10"/>
<path d="M464.948 451.945C464.948 451.945 489.663 449.294 501.63 452.299" stroke="#323232" stroke-width="1.79945" stroke-miterlimit="10"/>
<path d="M464.005 460.516C464.005 460.516 486.176 459.1 497.009 461.338" stroke="#323232" stroke-width="1.79945" stroke-miterlimit="10"/>
<path d="M390.184 293.368C394.715 301.668 400.921 309.05 408.321 314.944" stroke="#323232" stroke-width="1.79945" stroke-miterlimit="10"/>
<path d="M385.461 297.144C389.992 305.444 396.198 312.826 403.598 318.72" stroke="#323232" stroke-width="1.79945" stroke-miterlimit="10"/>
<path d="M363.921 314.669C363.921 312.496 362.162 310.737 359.99 310.737C359.75 310.737 359.515 310.761 359.287 310.803C358.615 310.269 357.769 309.951 356.845 309.951C354.672 309.951 352.914 311.71 352.914 313.882C352.914 315.281 353.646 316.505 354.75 317.201C354.582 317.633 354.492 318.108 354.492 318.6C354.492 320.772 356.251 322.531 358.423 322.531C360.596 322.531 362.354 320.772 362.354 318.6C362.354 318.348 362.33 318.102 362.282 317.861C363.273 317.147 363.921 315.989 363.921 314.669Z" stroke="black" stroke-width="1.79945" stroke-linecap="round"/>
<path d="M388.942 336.197C391.181 335.051 392.057 332.308 390.911 330.069C390.785 329.823 390.635 329.595 390.473 329.379C390.665 328.407 390.551 327.363 390.059 326.414C388.912 324.176 386.169 323.3 383.931 324.446C382.49 325.184 381.614 326.588 381.482 328.089C380.948 328.149 380.414 328.299 379.904 328.557C377.665 329.703 376.789 332.446 377.935 334.685C379.081 336.923 381.824 337.8 384.063 336.653C384.321 336.521 384.561 336.365 384.783 336.191C386.043 336.839 387.586 336.893 388.942 336.197Z" stroke="#323232" stroke-width="1.79945" stroke-miterlimit="10"/>
</g>
</g>
<defs>
<linearGradient id="paint0_linear_2836_1233" x1="723.57" y1="416.827" x2="948.742" y2="416.827" gradientUnits="userSpaceOnUse">
<stop stop-color="#968BCD"/>
<stop offset="0.1035" stop-color="#9B94D1"/>
<stop offset="0.276" stop-color="#A9AEDC"/>
<stop offset="0.495" stop-color="#BFD8ED"/>
<stop offset="0.6141" stop-color="#CDF1F8"/>
</linearGradient>
<linearGradient id="paint1_linear_2836_1233" x1="208.393" y1="246.769" x2="262.998" y2="246.769" gradientUnits="userSpaceOnUse">
<stop stop-color="#FFCCDD"/>
<stop offset="1" stop-color="#FFE05E"/>
</linearGradient>
<linearGradient id="paint2_linear_2836_1233" x1="85.3395" y1="462.111" x2="287.391" y2="462.111" gradientUnits="userSpaceOnUse">
<stop stop-color="#FFCCDD"/>
<stop offset="1" stop-color="#FFE05E"/>
</linearGradient>
<linearGradient id="paint3_linear_2836_1233" x1="429.233" y1="596.311" x2="526.541" y2="342.816" gradientUnits="userSpaceOnUse">
<stop stop-color="#FF3C00"/>
<stop offset="0.4134" stop-color="#FE885D"/>
<stop offset="1" stop-color="#FCFAE6"/>
</linearGradient>
<clipPath id="clip0_2836_1233">
<rect width="1080" height="720" fill="white"/>
</clipPath>
<clipPath id="clip1_2836_1233">
<rect width="1152.33" height="648.187" fill="white" transform="translate(-65 35)"/>
</clipPath>
</defs>
</svg>
